<svg width="17" height="17" fill="none" xmlns="http://www.w3.org/2000/svg"><g clip-path="url(#clip0)" fill=""><path d="M12.398 0H4.602A4.607 4.607 0 000 4.602v7.797A4.607 4.607 0 004.602 17h7.796A4.607 4.607 0 0017 12.4V4.602A4.607 4.607 0 0012.398 0zM8.5 13.15A4.654 4.654 0 013.852 8.5 4.654 4.654 0 018.5 3.852 4.654 4.654 0 0113.148 8.5 4.654 4.654 0 018.5 13.15zm4.76-8.2a1.375 1.375 0 01-1.374-1.374c0-.758.616-1.374 1.373-1.374.758 0 1.374.616 1.374 1.374 0 .757-.616 1.373-1.374 1.373z"/><path d="M8.5 4.849A3.656 3.656 0 004.848 8.5 3.656 3.656 0 008.5 12.152 3.656 3.656 0 0012.152 8.5 3.656 3.656 0 008.5 4.85zm4.76-1.651a.377.377 0 100 .755.377.377 0 000-.755z"/></g><defs><clipPath id="clip0"><path fill="" d="M0 0h17v17H0z"/></clipPath></defs></svg>
