<svg width="21" height="21" fill="none" xmlns="http://www.w3.org/2000/svg"><g clip-path="url(#clip0)"><path d="M18.842 6.224A8.594 8.594 0 0021 3.99a8.991 8.991 0 01-2.48.68 4.282 4.282 0 001.894-2.38 8.613 8.613 0 01-2.73 1.042 4.304 4.304 0 00-7.447 2.943c0 .342.028.67.1.983-3.58-.175-6.747-1.89-8.875-4.504a4.342 4.342 0 00-.59 2.176 4.31 4.31 0 001.913 3.578 4.255 4.255 0 01-1.945-.53v.047a4.325 4.325 0 003.45 4.23 4.262 4.262 0 01-1.13.142c-.275 0-.553-.015-.814-.073.557 1.704 2.141 2.958 4.022 3a8.654 8.654 0 01-5.338 1.835A8.12 8.12 0 010 17.1a12.124 12.124 0 006.604 1.933c7.598 0 12.55-6.339 12.238-12.808z" fill=""/></g><defs><clipPath id="clip0"><path fill="" d="M0 0h21v21H0z"/></clipPath></defs></svg>
