<svg width="17" height="19" viewBox="0 0 17 19" fill="none" xmlns="http://www.w3.org/2000/svg">
<path d="M11.8083 7.71436H1.62059L0.836914 18.0001H12.592L11.8083 7.71436Z" stroke="black" stroke-linejoin="round"/>
<path d="M4.14307 9.91841V6.61228C4.14307 5.87759 4.65735 4.4082 6.7145 4.4082C7.44919 4.4082 8.91858 4.84902 8.91858 6.61228C8.91858 8.37555 8.91858 9.55106 8.91858 9.91841" stroke="black"/>
<circle cx="11.8567" cy="5.87748" r="5.14286" fill=""/>
<path d="M11.893 3.208C12.2556 3.208 12.5676 3.272 12.829 3.4C13.0903 3.528 13.2876 3.704 13.421 3.928C13.5543 4.152 13.621 4.40533 13.621 4.688C13.621 5.04 13.517 5.336 13.309 5.576C13.1063 5.816 12.8076 5.96 12.413 6.008V6.056C12.8236 6.16267 13.1436 6.328 13.373 6.552C13.6076 6.776 13.725 7.08533 13.725 7.48C13.725 7.944 13.5703 8.32267 13.261 8.616C12.9516 8.90933 12.5063 9.056 11.925 9.056C11.3436 9.056 10.8716 8.90667 10.509 8.608C10.1516 8.304 9.94096 7.86133 9.87696 7.28H10.597C10.645 7.632 10.7783 7.912 10.997 8.12C11.221 8.328 11.5223 8.432 11.901 8.432C12.2583 8.432 12.533 8.34133 12.725 8.16C12.917 7.97333 13.013 7.73333 13.013 7.44C13.013 7.088 12.8743 6.82133 12.597 6.64C12.325 6.45333 11.9356 6.36 11.429 6.36H11.237V5.752H11.429C12.4103 5.752 12.901 5.424 12.901 4.768C12.901 4.48 12.8103 4.25067 12.629 4.08C12.4476 3.90933 12.197 3.824 11.877 3.824C11.557 3.824 11.2876 3.91733 11.069 4.104C10.8503 4.28533 10.7223 4.55467 10.685 4.912H9.97296C10.0103 4.37867 10.1943 3.96267 10.525 3.664C10.861 3.36 11.317 3.208 11.893 3.208Z" fill="white"/>
</svg>
