<svg width="17" height="18" fill="none" xmlns="http://www.w3.org/2000/svg">
<g clip-path="url(#clip0)">
<path d="M12.749.006L10.544.002c-2.476 0-4.077 1.642-4.077 4.184v1.929H4.251a.347.347 0 00-.347.347v2.795c0 .191.155.346.347.346h2.216v7.053c0 .191.155.346.347.346h2.892a.347.347 0 00.346-.346V9.603h2.592a.347.347 0 00.347-.346V6.462a.347.347 0 00-.346-.347h-2.593V4.48c0-.786.188-1.185 1.211-1.185h1.485a.347.347 0 00.347-.347V.352a.347.347 0 00-.346-.346z"/>
</g>
<defs>
<clipPath id="clip0"><path transform="translate(0 .002)" d="M0 0h17v17H0z"/></clipPath></defs>
</svg>
